<svg width="79" height="124" viewBox="0 0 79 124" fill="none" xmlns="http://www.w3.org/2000/svg">
<g clip-path="url(#clip0_251_69)">
<path d="M75.6762 70.592C75.5252 70.1687 75.3457 69.7561 75.1388 69.3571L75.1647 69.414C74.4103 67.6521 68.3446 55.9341 67.332 54.3376L39.1685 -0.00537109L10.2868 55.6706C9.30515 57.2723 3.92149 67.6573 3.17749 69.414L2.88299 70.065C0.962145 74.7465 -0.0175103 79.7607 -1.38533e-05 84.821C-1.38533e-05 95.2105 4.1272 105.174 11.4737 112.521C18.8202 119.867 28.7841 123.995 39.1736 123.995C49.5632 123.995 59.5271 119.867 66.8736 112.521C74.2201 105.174 78.3473 95.2105 78.3473 84.821V84.79L78.3525 84.2681C78.3525 79.334 77.3708 74.6271 75.5883 70.3388L75.6762 70.5816V70.592ZM39.1892 113.759C34.1779 113.761 29.2527 112.457 24.8985 109.976C20.5444 107.495 16.9113 103.923 14.357 99.6118C11.8027 95.3004 10.4152 90.3981 10.3311 85.3876C10.2471 80.377 11.4694 75.4309 13.8777 71.0363L13.8002 71.1861C13.4217 73.198 13.2314 75.2408 13.2318 77.288V77.2931C13.2373 86.4669 16.884 95.2633 23.3708 101.75C29.8576 108.237 38.6541 111.884 47.8278 111.889C48.4117 111.889 49.0368 111.889 49.6155 111.858C46.3133 113.127 42.8042 113.772 39.2666 113.759H39.1478H39.1892Z" fill="black"/>
</g>
<defs>
<clipPath id="clip0_251_69">
<rect width="78.5" height="124" fill="white"/>
</clipPath>
</defs>
</svg>
