<svg width="1376" height="642" viewBox="0 0 1376 642" fill="none" xmlns="http://www.w3.org/2000/svg">
<path d="M82.5846 498.8L88.4875 513.985C90.648 519.543 96.0635 523.148 102.025 522.996L118.312 522.582L103.126 528.485C97.5684 530.645 93.9635 536.061 94.1152 542.022L94.5296 558.309L88.6268 543.124C86.4663 537.566 81.0508 533.961 75.0895 534.112L58.8025 534.527L73.9879 528.624C79.5459 526.464 83.1508 521.048 82.9991 515.087L82.5846 498.8Z" fill="white"/>
<path d="M1247.34 383.968L1259.88 399.782C1261.49 401.812 1264.57 401.823 1266.2 399.803L1278.85 384.074L1271.42 402.844C1270.47 405.254 1272 407.925 1274.56 408.322L1294.51 411.412L1274.54 414.368C1271.98 414.747 1270.43 417.408 1271.36 419.824L1278.66 438.644L1266.12 422.83C1264.51 420.8 1261.43 420.789 1259.8 422.808L1247.15 438.537L1254.58 419.768C1255.53 417.358 1254 414.687 1251.44 414.29L1231.49 411.199L1251.46 408.244C1254.02 407.864 1255.57 405.203 1254.64 402.787L1247.34 383.968Z" fill="white"/>
<path d="M1363.59 198.794L1362.46 204.928C1362.05 207.174 1363.09 209.437 1365.06 210.585L1370.45 213.721L1364.32 212.595C1362.07 212.182 1359.81 213.223 1358.66 215.196L1355.52 220.588L1356.65 214.453C1357.06 212.208 1356.02 209.945 1354.05 208.797L1348.66 205.66L1354.79 206.787C1357.04 207.199 1359.3 206.158 1360.45 204.185L1363.59 198.794Z" fill="white"/>
<path d="M1301.9 615.366L1301.14 621.557C1300.87 623.823 1302.04 626.02 1304.08 627.048L1309.65 629.857L1303.46 629.099C1301.19 628.821 1298.99 629.995 1297.97 632.033L1295.16 637.602L1295.91 631.411C1296.19 629.145 1295.02 626.949 1292.98 625.92L1287.41 623.111L1293.6 623.87C1295.87 624.147 1298.06 622.973 1299.09 620.935L1301.9 615.366Z" fill="white"/>
<path d="M321.982 0L319.767 11.5074C319.458 13.1108 321.081 14.3987 322.573 13.7339L333.276 8.96285L323.573 15.5336C322.221 16.4492 322.458 18.5074 323.982 19.0919L334.925 23.2867L323.417 21.0717C321.814 20.7631 320.526 22.3859 321.191 23.8773L325.962 34.5808L319.391 24.8776C318.475 23.5256 316.417 23.7624 315.833 25.2871L311.638 36.2292L313.853 24.7218C314.161 23.1184 312.539 21.8305 311.047 22.4953L300.344 27.2664L310.047 20.6956C311.399 19.78 311.162 17.7218 309.637 17.1373L298.695 12.9425L310.203 15.1575C311.806 15.4661 313.094 13.8433 312.429 12.3519L307.658 1.64844L314.229 11.3516C315.144 12.7036 317.203 12.4668 317.787 10.9421L321.982 0Z" fill="white"/>
<path d="M10.5371 224.667L17.8257 233.856C19.436 235.886 22.5143 235.897 24.1383 233.877L31.4888 224.738L27.175 235.644C26.2219 238.054 27.7521 240.725 30.3128 241.122L41.9032 242.918L30.301 244.635C27.7376 245.015 26.1894 247.676 27.1262 250.092L31.3661 261.027L24.0776 251.838C22.4673 249.808 19.389 249.797 17.765 251.817L10.4145 260.956L14.7282 250.05C15.6813 247.64 14.1511 244.969 11.5904 244.572L0 242.776L11.6023 241.059C14.1656 240.679 15.7138 238.019 14.7771 235.603L10.5371 224.667Z" fill="white"/>
</svg>
